<svg xmlns="http://www.w3.org/2000/svg" viewBox="0 0 18 18"><defs><style>.a{fill:#001e22;}</style></defs><path class="a" d="M15.5,3h-7A5.5,5.5,0,0,0,3,8.5v7A5.5,5.5,0,0,0,8.5,21h7A5.5,5.5,0,0,0,21,15.5v-7A5.5,5.5,0,0,0,15.5,3Zm4,12.5a4,4,0,0,1-4,4h-7a4,4,0,0,1-4-4v-7a4,4,0,0,1,4-4h7a4,4,0,0,1,4,4Z" transform="translate(-3 -3)"/><path class="a" d="M12,7.5A4.5,4.5,0,1,0,16.5,12,4.49,4.49,0,0,0,12,7.5ZM12,15a3,3,0,1,1,3-3A3,3,0,0,1,12,15Z" transform="translate(-3 -3)"/><circle class="a" cx="13.7" cy="4.3" r="1"/></svg>