<svg xmlns="http://www.w3.org/2000/svg" viewBox="0 0 27.69 34.62"><defs><style>.a{fill:#8cbcc2;fill-rule:evenodd;}</style></defs><path class="a" d="M32.76,39.08c6.61,0,11.09-6.14,11.09-14.37,0-6.22-5.17-12-13-12-9.76,0-14.69,7.15-14.69,13.11,0,3.6,1.34,6.81,4.21,8a.7.7,0,0,0,1-.53l.42-1.68a1,1,0,0,0-.3-1.17,6.16,6.16,0,0,1-1.35-4.11,9.83,9.83,0,0,1,10.11-10c5.52,0,8.55,3.44,8.55,8,0,6.05-2.62,11.15-6.51,11.15a3.22,3.22,0,0,1-3.24-4c.61-2.65,1.81-5.52,1.81-7.44,0-1.72-.9-3.15-2.77-3.15-2.2,0-4,2.32-4,5.43a8.27,8.27,0,0,0,.65,3.32S22.55,39.31,22.16,41a18.49,18.49,0,0,0-.36,4.69c.15,1.3,1.4,2.35,2.49.93a17.46,17.46,0,0,0,2-4.39c.26-.94,1.45-5.77,1.45-5.77A5.85,5.85,0,0,0,32.76,39.08Z" transform="translate(-16.15 -12.69)"/></svg>