<svg xmlns="http://www.w3.org/2000/svg" viewBox="0 0 32.31 27.69"><defs><style>.a{fill:#8cbcc2;fill-rule:evenodd;}</style></defs><path class="a" d="M41.05,18.44a6.61,6.61,0,0,0-4.84-2.29,6.7,6.7,0,0,0-6.62,6.91,7,7,0,0,0,.17,1.6A18.62,18.62,0,0,1,16.1,17.11a7.43,7.43,0,0,0,2,9.47,6.4,6.4,0,0,1-3-.92v.09a7,7,0,0,0,5.32,7,6.08,6.08,0,0,1-3,.1,6.72,6.72,0,0,0,6.19,4.93,12.75,12.75,0,0,1-8.23,3,11.66,11.66,0,0,1-1.58-.1A17.88,17.88,0,0,0,24,43.85C36.2,43.85,42.87,33.24,42.87,24c0-.31,0-.61,0-.9a13.66,13.66,0,0,0,3.3-3.56,12.44,12.44,0,0,1-3.8,1,6.75,6.75,0,0,0,2.91-3.81A12.68,12.68,0,0,1,41.05,18.44Z" transform="translate(-13.85 -16.15)"/></svg>