<svg xmlns="http://www.w3.org/2000/svg" xmlns:xlink="http://www.w3.org/1999/xlink" viewBox="0 0 1082.5 1082.5"><defs><style>.a{fill:none;}.b{filter:url(#a);}.c{fill:#013941;}.d{clip-path:url(#b);}.e{fill:#cb4f45;}.f{fill:#2c727c;}</style><filter id="a" name="DropShadow"><feDropShadow stdDeviation="20" dx="0" dy="0" flood-color="#CB4F45"/></filter><clipPath id="b"><circle class="a" cx="540" cy="540" r="520"/></clipPath></defs><rect class="a" width="1082.5" height="1082.5"/><g class="b"><circle class="c" cx="540" cy="540" r="520"/></g><g class="d"><path class="e" d="M898,110c-11-4.39-30-15.52-41-19,0,0-416.55,56-346,481C570.52,930.54,20,799.73,20,799.73c18,19,27.19,242.35,242,237.27,44.51-1,270.34,43.36,314,30,0,0,331-161,178-506S898,110,898,110Z"/></g><g class="d"><path class="f" d="M857,91S440.45,147,511,572C570.52,930.54,20,799.73,20,799.73V20H829Z"/></g></svg>