<svg id="Layer_1" data-name="Layer 1" xmlns="http://www.w3.org/2000/svg" viewBox="0 0 1784 108.5"><defs><style>.cls-1,.cls-2{fill:none;stroke-miterlimit:10;}.cls-1{stroke:#8cbcc2;stroke-width:10px;}.cls-2{stroke:#013941;stroke-width:15px;}</style></defs><path class="cls-1" d="M1859,678c-63.71,0-63.71-78-127.43-78s-63.71,78-127.42,78-63.72-78-127.43-78-63.71,78-127.43,78-63.71-78-127.43-78-63.71,78-127.42,78S1030.72,600,967,600s-63.71,78-127.43,78-63.71-78-127.42-78-63.72,78-127.43,78S521,600,457.3,600s-63.72,78-127.43,78-63.72-78-127.44-78S138.72,678,75,678" transform="translate(-75 -595)"/><path class="cls-2" d="M75,618c63.71,0,63.71,78,127.43,78s63.71-78,127.42-78,63.72,78,127.43,78S521,618,584.71,618s63.71,78,127.43,78,63.71-78,127.42-78S903.28,696,967,696s63.71-78,127.43-78,63.71,78,127.42,78,63.72-78,127.43-78,63.72,78,127.43,78,63.72-78,127.43-78,63.72,78,127.44,78,63.71-78,127.43-78" transform="translate(-75 -595)"/></svg>