<svg id="Layer_1" data-name="Layer 1" xmlns="http://www.w3.org/2000/svg" viewBox="0 0 400.33 372.43"><defs><style>.cls-1{fill:#603813;}</style></defs><title>rock</title><path class="cls-1" d="M168.11,389.43c-23.74-4.52-48-9.22-68.93-21.27-9.19-5.29-17.55-11.89-25.87-18.47L32.22,317.22C25.58,312,18.87,306.65,13.7,300,7,291.26,3.18,280.59,1.39,269.75-1.48,252.33.62,234.5,3,217,10.64,159.92,22.15,100.48,58.4,55.73c7.53-9.3,16.23-17.95,26.92-23.32,8-4,16.89-6.08,25.69-7.9a357.32,357.32,0,0,1,48.45-7.14c11.06-.75,22.48-.69,32.82,3.3,8.17,3.14,15.24,8.58,23,12.65C240.61,46.61,271,44.46,298.83,51.16c56,13.47,99.66,67.18,101.43,124.74,1,31.71-9.39,62.59-20.49,92.3-5.37,14.36-11.14,29-21.35,40.41-15.35,17.2-38.56,24.87-61,30.2S251.61,348.07,232,360.2c-11,6.83-20.49,16.06-31.81,22.41s-25.76,9.47-37.13,3.22" transform="translate(0 -17)"/></svg>